<svg width="500" height="500" viewBox="0 0 500 500" fill="none" xmlns="http://www.w3.org/2000/svg">
<rect width="500" height="500" rx="170" fill="#C1B1FF"/>
<circle cx="222" cy="219" r="160" fill="#BCF1CE"/>
<path d="M357.264 225.018C350.928 140.71 265.331 79.1912 207.952 78.3955C190.647 78.1555 182.931 106.66 203.941 107.787C268.8 111.265 312.769 163.647 331.665 233.482C335.049 245.988 358.275 238.471 357.264 225.018Z" fill="white"/>
<circle cx="338.431" cy="344.569" r="100.431" fill="#B1ECC5"/>
<path d="M423.878 338.87C415.184 286.854 358.538 253.469 322.849 256.213C312.086 257.041 309.734 277.97 322.849 277.484C363.337 275.985 393.607 306.043 409.286 348.359C412.094 355.937 425.265 347.17 423.878 338.87Z" fill="white"/>
</svg>
